<svg width="40" height="41" viewBox="0 0 40 41" fill="none" xmlns="http://www.w3.org/2000/svg">
<path d="M39.9822 2.75808C39.9498 1.68914 39.0642 0.839363 37.9831 0.839844H1.99911C0.895033 0.839844 0 1.72523 0 2.81741V38.4136C0 39.5057 0.895033 40.3911 1.99911 40.3911H37.9831C39.0872 40.3911 39.9822 39.5057 39.9822 38.4136C39.9822 -5.46858 40.0222 4.13578 39.9822 2.75808ZM38.6495 2.75808L35.5442 13.1601L31.3194 11.5912V2.15822L37.9831 2.15822C38.3313 2.15712 38.6216 2.42135 38.6495 2.76467V2.75808ZM29.9867 11.9274L25.0755 25.2825L20.6575 20.365V2.15822H29.9867V11.9274ZM19.3247 18.7368C15.3265 13.8193 15.2332 13.6676 15.1466 13.5754C15.021 13.4414 14.8448 13.365 14.6601 13.3644C14.4869 13.3644 15.4131 13.3644 11.9947 13.3644C11.6266 13.3644 11.3283 13.6595 11.3283 14.0236C11.3283 14.3877 11.6266 14.6828 11.9947 14.6828H13.5473L9.99556 21.2747V2.15822H19.3247V18.7368ZM9.99556 24.0762L14.7734 15.2167L19.3247 20.8462V39.0727H9.99556V24.0762ZM20.6575 22.3491C25.1422 27.3392 24.8423 27.0426 25.0355 27.1348C25.2288 27.2271 25.1422 27.2074 27.9876 27.2074C28.3556 27.2074 28.6539 26.9122 28.6539 26.5482C28.6539 26.1841 28.3556 25.889 27.9876 25.889H26.275L29.9867 15.7902V39.0727H20.6575V22.3491ZM1.99911 2.15822H8.66282V13.3644H7.33007C6.96205 13.3644 6.6637 13.6595 6.6637 14.0236C6.6637 14.3877 6.96205 14.6828 7.33007 14.6828H8.66282V23.7268L4.87117 29.9825L1.33274 31.4789V2.81741C1.33274 2.45335 1.63109 2.15822 1.99911 2.15822ZM1.33274 38.4136V32.9159L5.59085 31.1097C5.87072 30.9911 5.67748 31.2086 8.66282 26.2911V39.0727H1.99911C1.63109 39.0727 1.33274 38.7776 1.33274 38.4136ZM37.9831 39.0727H31.3194V27.2074H32.6522C33.0202 27.2074 33.3185 26.9122 33.3185 26.5482C33.3185 26.1841 33.0202 25.889 32.6522 25.889H31.3194V12.9953L35.7508 14.6432C35.9277 14.7163 36.1279 14.7104 36.3001 14.6271C36.4724 14.5438 36.6 14.3912 36.6504 14.2082L38.6495 7.39217V38.4136C38.6495 38.7776 38.3511 39.0727 37.9831 39.0727Z" fill="#3355FF"/>
<path d="M25.7952 28.7184C25.67 28.5936 25.4997 28.5234 25.322 28.5234C25.1444 28.5234 24.974 28.5936 24.8489 28.7184L22.8498 30.696C22.6808 30.8632 22.6148 31.1069 22.6766 31.3354C22.7385 31.5638 22.9188 31.7422 23.1497 31.8034C23.3806 31.8646 23.627 31.7993 23.796 31.6321L24.6557 30.7751V35.1192C24.6557 35.4833 24.954 35.7784 25.322 35.7784C25.6901 35.7784 25.9884 35.4833 25.9884 35.1192V30.7751L26.848 31.6321C27.1093 31.8906 27.533 31.8906 27.7943 31.6321C28.0556 31.3736 28.0556 30.9545 27.7943 30.696L25.7952 28.7184Z" fill="#3355FF"/>
<path d="M14.187 11.8567C14.3121 11.9814 14.4825 12.0516 14.6601 12.0516C14.8378 12.0516 15.0081 11.9814 15.1333 11.8567L17.1324 9.87912C17.3014 9.71192 17.3674 9.46821 17.3056 9.2398C17.2437 9.0114 17.0633 8.83299 16.8324 8.77179C16.6015 8.71059 16.3552 8.77589 16.1861 8.94309L15.3265 9.80002V5.45605C15.3265 5.092 15.0282 4.79688 14.6601 4.79688C14.2921 4.79688 13.9938 5.092 13.9938 5.45605V9.80002L13.1342 8.94309C12.8729 8.68462 12.4492 8.68462 12.1879 8.94309C11.9266 9.20157 11.9266 9.62065 12.1879 9.87912L14.187 11.8567Z" fill="#3355FF"/>
<path d="M36.6505 25.8867H35.3177C34.9497 25.8867 34.6514 26.1817 34.6514 26.5455C34.6514 26.9094 34.9497 27.2043 35.3177 27.2043H36.6505C37.0185 27.2043 37.3168 26.9094 37.3168 26.5455C37.3168 26.1817 37.0185 25.8867 36.6505 25.8867Z" fill="#3355FF"/>
<path d="M3.33189 14.6808H4.66463C5.03265 14.6808 5.33099 14.3859 5.33099 14.022C5.33099 13.6582 5.03265 13.3633 4.66463 13.3633H3.33189C2.96387 13.3633 2.66553 13.6582 2.66553 14.022C2.66553 14.3859 2.96387 14.6808 3.33189 14.6808Z" fill="#3355FF"/>
</svg>
