<svg width="40" height="41" viewBox="0 0 40 41" fill="none" xmlns="http://www.w3.org/2000/svg">
<path d="M1.03198 33.5025C0.898638 33.5025 0.823635 33.5009 0.810302 33.5009C0.350286 33.4877 -0.0113926 33.1087 0.000274505 32.6539C0.0136083 32.1991 0.383621 31.8728 0.85697 31.8531C1.13365 31.8498 29.4396 32.3474 35.8598 7.75414C35.9748 7.31254 36.4282 7.05054 36.8748 7.16259C37.3199 7.27629 37.5882 7.72613 37.4732 8.16609C31.0296 32.8549 3.77873 33.5025 1.03198 33.5025Z" fill="#3355FF"/>
<path d="M39.1682 13.0635C38.8798 13.0635 38.5998 12.9169 38.4448 12.6515L36.3614 9.08354L32.753 11.1436C32.3546 11.3694 31.8446 11.2359 31.6146 10.842C31.3846 10.4481 31.5213 9.94381 31.9196 9.71639L36.2498 7.24434C36.6464 7.01526 37.1564 7.1504 37.3881 7.54593L39.8882 11.8275C40.1182 12.2214 39.9815 12.7257 39.5832 12.9531C39.4532 13.0289 39.3098 13.0635 39.1682 13.0635Z" fill="#3355FF"/>
<path d="M35.8348 40.0928C35.3748 40.0928 35.0015 39.7237 35.0015 39.2689V17.8473C35.0015 17.3925 35.3748 17.0234 35.8348 17.0234C36.2949 17.0234 36.6682 17.3925 36.6682 17.8473V39.2689C36.6682 39.7237 36.2949 40.0928 35.8348 40.0928Z" fill="#3355FF"/>
<path d="M25.8344 40.0933C25.3743 40.0933 25.001 39.7242 25.001 39.2694V29.3825C25.001 28.9277 25.3743 28.5586 25.8344 28.5586C26.2944 28.5586 26.6677 28.9277 26.6677 29.3825V39.2694C26.6677 39.7242 26.2944 40.0933 25.8344 40.0933Z" fill="#3355FF"/>
<path d="M15.8344 40.0922C15.3743 40.0922 15.001 39.723 15.001 39.2681V34.324C15.001 33.8692 15.3743 33.5 15.8344 33.5C16.2944 33.5 16.6677 33.8692 16.6677 34.324V39.2681C16.6677 39.723 16.2944 40.0922 15.8344 40.0922Z" fill="#3355FF"/>
<path d="M5.83386 40.0918C5.37384 40.0918 5.00049 39.7227 5.00049 39.268V36.7965C5.00049 36.3417 5.37384 35.9727 5.83386 35.9727C6.29388 35.9727 6.66724 36.3417 6.66724 36.7965V39.268C6.66724 39.7227 6.29388 40.0918 5.83386 40.0918Z" fill="#3355FF"/>
<path d="M12.0974 20.0496C11.884 20.0496 11.6707 19.9689 11.5074 19.809L5.51382 13.8819C5.20048 13.5721 5.18714 13.0728 5.48382 12.7482L10.394 7.35826C13.8824 3.37553 19.4159 0.630293 24.1528 0.54296C24.3494 0.516595 24.5978 0.626997 24.7578 0.783538C24.9178 0.943375 25.0045 1.15924 25.0011 1.38169C24.9128 6.06474 22.136 11.5354 18.0942 14.9942L12.6541 19.8387C12.4974 19.9804 12.2974 20.0496 12.0974 20.0496ZM7.25221 13.2706L12.129 18.092L16.9925 13.76C20.4526 10.7989 22.8961 6.27566 23.2827 2.24184C19.2026 2.62413 14.6291 5.03981 11.644 8.44911L7.25221 13.2706Z" fill="#3355FF"/>
<path d="M14.3411 23.9583C14.2661 23.9583 14.1894 23.9484 14.1144 23.9269C13.8244 23.8446 13.601 23.6172 13.5294 23.3255L12.351 18.4645C12.2443 18.0228 12.521 17.5779 12.9677 17.4708C13.4194 17.367 13.866 17.6389 13.9727 18.0805L14.7544 21.3086C16.2028 19.0692 16.4911 16.2037 16.5211 14.5278C16.5295 14.073 16.9261 13.7171 17.3695 13.7188C17.8295 13.7253 18.1962 14.1027 18.1878 14.5558C18.1178 18.4546 16.9611 21.7073 14.9294 23.716C14.7711 23.8726 14.5577 23.9583 14.3411 23.9583Z" fill="#3355FF"/>
<path d="M7.06897 13.0732C7.00396 13.0732 6.93896 13.0666 6.87396 13.0501L1.95715 11.8849C1.6638 11.8157 1.43046 11.5965 1.34879 11.3081C1.26713 11.0214 1.34879 10.7132 1.56047 10.5022C3.5922 8.49326 6.88229 7.34952 10.8274 7.2803C11.2891 7.2391 11.6674 7.63463 11.6741 8.08949C11.6808 8.54435 11.3174 8.92011 10.8557 8.92835C9.15903 8.95801 6.26227 9.24312 3.99721 10.6753L7.2623 11.4482C7.70898 11.5537 7.98566 11.9987 7.87899 12.442C7.78565 12.8194 7.44564 13.0732 7.06897 13.0732Z" fill="#3355FF"/>
<path d="M0.833722 25.2628C0.615381 25.2628 0.403707 25.1771 0.243701 25.0222C0.0270267 24.808 -0.0529761 24.4933 0.0353604 24.2033C0.31037 23.2937 1.74042 18.7028 2.86046 17.5954C4.20884 16.2607 6.40392 16.259 7.7573 17.5954C9.10735 18.9302 9.10735 21.102 7.7573 22.4368C6.63893 23.5441 1.99376 24.9563 1.07373 25.2282C0.993728 25.2513 0.913725 25.2628 0.833722 25.2628ZM5.30888 18.2414C4.84886 18.2414 4.38885 18.4144 4.03884 18.7605C3.56549 19.2284 2.75212 21.2915 2.11543 23.1717C4.01717 22.5422 6.10558 21.7381 6.57726 21.2718C7.27728 20.5797 7.27728 19.4525 6.57726 18.7621C6.22725 18.4144 5.76723 18.2414 5.30888 18.2414Z" fill="#3355FF"/>
</svg>
