<svg width="42" height="41" viewBox="0 0 42 41" fill="none" xmlns="http://www.w3.org/2000/svg">
<path d="M34.2424 0.489062C31.1507 0.489062 28.7212 3.40815 28.7212 7.02652C28.7212 10.6456 31.1891 13.5195 34.2424 13.5195C37.2958 13.5195 39.8013 10.6012 39.8013 6.98208C39.8013 3.36276 37.3333 0.489062 34.2424 0.489062ZM34.2424 11.9976C31.9003 11.9976 29.9909 9.76183 29.9909 6.98208C29.9909 4.20325 31.9372 2.01097 34.2424 2.01097C36.5846 2.01097 38.4939 4.24677 38.4939 7.02652C38.4939 9.80565 36.5851 11.9976 34.2424 11.9976Z" fill="#3355FF" stroke="#3355FF" stroke-width="0.1"/>
<mask id="path-2-outside-1" maskUnits="userSpaceOnUse" x="31.4688" y="1.80859" width="5" height="10" fill="black">
<rect fill="white" x="31.4688" y="1.80859" width="5" height="10"/>
<path d="M35.9779 8.00748C35.9402 7.87417 35.9402 7.7853 35.8647 7.652C35.827 7.56313 35.7892 7.42982 35.7138 7.34095C35.6383 7.25208 35.6006 7.16321 35.5251 7.07434C35.4496 6.98547 35.3742 6.8966 35.261 6.85217C35.1855 6.7633 35.0723 6.71886 34.9968 6.67443C34.8836 6.62999 34.8082 6.54112 34.695 6.49669C34.5818 6.45226 34.4686 6.40782 34.3931 6.36338C34.3554 6.36338 34.2799 6.31895 34.2422 6.27452C34.2045 6.23008 34.129 6.23008 34.0913 6.18565C34.0535 6.14121 33.9781 6.14121 33.9403 6.09678C33.9026 6.05234 33.8649 6.00791 33.8271 5.96347C33.7894 5.91904 33.7517 5.8746 33.7517 5.78573C33.7139 5.7413 33.7139 5.65243 33.7139 5.60799C33.7139 5.51912 33.7139 5.47469 33.7139 5.38582C33.7139 5.34138 33.7517 5.25251 33.7517 5.20808C33.7894 5.16364 33.7894 5.07477 33.8271 5.03034C33.8649 4.9859 33.9026 4.94147 33.9403 4.89703C33.9781 4.8526 34.0535 4.80816 34.129 4.80816C34.2045 4.76373 34.2422 4.76373 34.3177 4.76373C34.3554 4.76373 34.3931 4.76373 34.4308 4.76373C34.4686 4.76373 34.5063 4.76373 34.544 4.76373C34.6195 4.76373 34.6572 4.76373 34.7327 4.80816C34.8082 4.80816 34.8836 4.8526 34.9214 4.8526C34.9591 4.8526 35.0346 4.89703 35.0723 4.89703C35.1478 4.89703 35.1855 4.94147 35.2232 4.94147L35.4119 5.03034L35.4496 4.76373L35.5251 4.05277V3.87503L35.3742 3.8306C35.3364 3.8306 35.261 3.78616 35.2232 3.78616C35.1855 3.78616 35.1478 3.74173 35.0723 3.74173C35.0346 3.74173 34.9591 3.69729 34.8836 3.69729C34.8082 3.69729 34.7704 3.65286 34.695 3.65286H34.6572V3.03077V2.80859H34.4686H33.9403H33.7517V3.03077V3.69729H33.7139C33.6007 3.74173 33.4875 3.78616 33.3743 3.87503C33.2611 3.91947 33.1857 4.00834 33.1102 4.09721C33.0347 4.18608 32.9593 4.27495 32.8838 4.40825C32.8083 4.49712 32.7706 4.63042 32.7329 4.76373C32.6951 4.89703 32.6574 5.03034 32.6197 5.16364C32.5819 5.29695 32.5819 5.47469 32.5819 5.60799C32.5819 5.7413 32.5819 5.83017 32.6197 5.96347C32.6574 6.09678 32.6574 6.18565 32.7329 6.31895C32.7706 6.40782 32.8461 6.54112 32.8838 6.62999C32.9593 6.71886 32.997 6.80773 33.0725 6.8966C33.1479 6.98547 33.2234 7.07434 33.3366 7.11878C33.4121 7.20765 33.5253 7.25208 33.6007 7.29652C33.7139 7.34095 33.8271 7.42982 33.9026 7.47426C34.0158 7.51869 34.129 7.56313 34.2045 7.60756C34.2422 7.60756 34.3177 7.652 34.3554 7.69643C34.3931 7.74087 34.4686 7.74087 34.5063 7.7853C34.544 7.82974 34.5818 7.87417 34.6195 7.87417C34.6572 7.91861 34.695 7.96304 34.7327 8.00748C34.7704 8.05191 34.7704 8.09635 34.8082 8.18522C34.8082 8.22965 34.8459 8.31852 34.8459 8.40739C34.8459 8.49626 34.8459 8.54069 34.8459 8.62956C34.8459 8.674 34.8082 8.76287 34.7704 8.8073C34.7327 8.85174 34.695 8.89617 34.6572 8.94061C34.6195 8.98504 34.5818 9.02948 34.5063 9.07391C34.4686 9.11835 34.3931 9.11835 34.3554 9.16278C34.3177 9.16278 34.2422 9.20722 34.1667 9.20722C34.129 9.20722 34.0913 9.20722 34.0158 9.20722C33.9781 9.20722 33.9026 9.20722 33.8649 9.20722C33.7894 9.20722 33.7139 9.20722 33.6762 9.20722C33.6007 9.20722 33.5253 9.16278 33.4875 9.16278C33.4121 9.16278 33.3366 9.11835 33.2611 9.07391C33.1857 9.02948 33.1102 9.02948 33.0347 8.98504C32.997 8.98504 32.9593 8.94061 32.9215 8.94061C32.8838 8.94061 32.8461 8.89617 32.8083 8.89617L32.5819 8.76287L32.5442 9.07391L32.4688 9.87374V10.007L32.5819 10.0515C32.7329 10.007 32.8083 10.0515 32.9215 10.0959C32.997 10.1403 33.1102 10.1848 33.1857 10.1848C33.2611 10.2292 33.3743 10.2292 33.4875 10.2737C33.6007 10.3181 33.6762 10.3181 33.7894 10.3181H33.8649V10.9846V11.2068H34.0535H34.5818H34.7704V10.9846V10.2737H34.8082C34.9214 10.2292 35.0346 10.1848 35.1478 10.0959C35.261 10.0515 35.3364 9.96261 35.4496 9.87374C35.5251 9.78487 35.6006 9.696 35.676 9.5627C35.7515 9.47383 35.7892 9.34052 35.8647 9.20722C35.9024 9.07391 35.9402 8.94061 35.9779 8.8073C36.0156 8.674 36.0156 8.54069 36.0156 8.36295C36.0156 8.22965 36.0156 8.14078 35.9779 8.00748Z"/>
</mask>
<path d="M35.9779 8.00748C35.9402 7.87417 35.9402 7.7853 35.8647 7.652C35.827 7.56313 35.7892 7.42982 35.7138 7.34095C35.6383 7.25208 35.6006 7.16321 35.5251 7.07434C35.4496 6.98547 35.3742 6.8966 35.261 6.85217C35.1855 6.7633 35.0723 6.71886 34.9968 6.67443C34.8836 6.62999 34.8082 6.54112 34.695 6.49669C34.5818 6.45226 34.4686 6.40782 34.3931 6.36338C34.3554 6.36338 34.2799 6.31895 34.2422 6.27452C34.2045 6.23008 34.129 6.23008 34.0913 6.18565C34.0535 6.14121 33.9781 6.14121 33.9403 6.09678C33.9026 6.05234 33.8649 6.00791 33.8271 5.96347C33.7894 5.91904 33.7517 5.8746 33.7517 5.78573C33.7139 5.7413 33.7139 5.65243 33.7139 5.60799C33.7139 5.51912 33.7139 5.47469 33.7139 5.38582C33.7139 5.34138 33.7517 5.25251 33.7517 5.20808C33.7894 5.16364 33.7894 5.07477 33.8271 5.03034C33.8649 4.9859 33.9026 4.94147 33.9403 4.89703C33.9781 4.8526 34.0535 4.80816 34.129 4.80816C34.2045 4.76373 34.2422 4.76373 34.3177 4.76373C34.3554 4.76373 34.3931 4.76373 34.4308 4.76373C34.4686 4.76373 34.5063 4.76373 34.544 4.76373C34.6195 4.76373 34.6572 4.76373 34.7327 4.80816C34.8082 4.80816 34.8836 4.8526 34.9214 4.8526C34.9591 4.8526 35.0346 4.89703 35.0723 4.89703C35.1478 4.89703 35.1855 4.94147 35.2232 4.94147L35.4119 5.03034L35.4496 4.76373L35.5251 4.05277V3.87503L35.3742 3.8306C35.3364 3.8306 35.261 3.78616 35.2232 3.78616C35.1855 3.78616 35.1478 3.74173 35.0723 3.74173C35.0346 3.74173 34.9591 3.69729 34.8836 3.69729C34.8082 3.69729 34.7704 3.65286 34.695 3.65286H34.6572V3.03077V2.80859H34.4686H33.9403H33.7517V3.03077V3.69729H33.7139C33.6007 3.74173 33.4875 3.78616 33.3743 3.87503C33.2611 3.91947 33.1857 4.00834 33.1102 4.09721C33.0347 4.18608 32.9593 4.27495 32.8838 4.40825C32.8083 4.49712 32.7706 4.63042 32.7329 4.76373C32.6951 4.89703 32.6574 5.03034 32.6197 5.16364C32.5819 5.29695 32.5819 5.47469 32.5819 5.60799C32.5819 5.7413 32.5819 5.83017 32.6197 5.96347C32.6574 6.09678 32.6574 6.18565 32.7329 6.31895C32.7706 6.40782 32.8461 6.54112 32.8838 6.62999C32.9593 6.71886 32.997 6.80773 33.0725 6.8966C33.1479 6.98547 33.2234 7.07434 33.3366 7.11878C33.4121 7.20765 33.5253 7.25208 33.6007 7.29652C33.7139 7.34095 33.8271 7.42982 33.9026 7.47426C34.0158 7.51869 34.129 7.56313 34.2045 7.60756C34.2422 7.60756 34.3177 7.652 34.3554 7.69643C34.3931 7.74087 34.4686 7.74087 34.5063 7.7853C34.544 7.82974 34.5818 7.87417 34.6195 7.87417C34.6572 7.91861 34.695 7.96304 34.7327 8.00748C34.7704 8.05191 34.7704 8.09635 34.8082 8.18522C34.8082 8.22965 34.8459 8.31852 34.8459 8.40739C34.8459 8.49626 34.8459 8.54069 34.8459 8.62956C34.8459 8.674 34.8082 8.76287 34.7704 8.8073C34.7327 8.85174 34.695 8.89617 34.6572 8.94061C34.6195 8.98504 34.5818 9.02948 34.5063 9.07391C34.4686 9.11835 34.3931 9.11835 34.3554 9.16278C34.3177 9.16278 34.2422 9.20722 34.1667 9.20722C34.129 9.20722 34.0913 9.20722 34.0158 9.20722C33.9781 9.20722 33.9026 9.20722 33.8649 9.20722C33.7894 9.20722 33.7139 9.20722 33.6762 9.20722C33.6007 9.20722 33.5253 9.16278 33.4875 9.16278C33.4121 9.16278 33.3366 9.11835 33.2611 9.07391C33.1857 9.02948 33.1102 9.02948 33.0347 8.98504C32.997 8.98504 32.9593 8.94061 32.9215 8.94061C32.8838 8.94061 32.8461 8.89617 32.8083 8.89617L32.5819 8.76287L32.5442 9.07391L32.4688 9.87374V10.007L32.5819 10.0515C32.7329 10.007 32.8083 10.0515 32.9215 10.0959C32.997 10.1403 33.1102 10.1848 33.1857 10.1848C33.2611 10.2292 33.3743 10.2292 33.4875 10.2737C33.6007 10.3181 33.6762 10.3181 33.7894 10.3181H33.8649V10.9846V11.2068H34.0535H34.5818H34.7704V10.9846V10.2737H34.8082C34.9214 10.2292 35.0346 10.1848 35.1478 10.0959C35.261 10.0515 35.3364 9.96261 35.4496 9.87374C35.5251 9.78487 35.6006 9.696 35.676 9.5627C35.7515 9.47383 35.7892 9.34052 35.8647 9.20722C35.9024 9.07391 35.9402 8.94061 35.9779 8.8073C36.0156 8.674 36.0156 8.54069 36.0156 8.36295C36.0156 8.22965 36.0156 8.14078 35.9779 8.00748Z" fill="#3355FF"/>
<path d="M35.9779 8.00748C35.9402 7.87417 35.9402 7.7853 35.8647 7.652C35.827 7.56313 35.7892 7.42982 35.7138 7.34095C35.6383 7.25208 35.6006 7.16321 35.5251 7.07434C35.4496 6.98547 35.3742 6.8966 35.261 6.85217C35.1855 6.7633 35.0723 6.71886 34.9968 6.67443C34.8836 6.62999 34.8082 6.54112 34.695 6.49669C34.5818 6.45226 34.4686 6.40782 34.3931 6.36338C34.3554 6.36338 34.2799 6.31895 34.2422 6.27452C34.2045 6.23008 34.129 6.23008 34.0913 6.18565C34.0535 6.14121 33.9781 6.14121 33.9403 6.09678C33.9026 6.05234 33.8649 6.00791 33.8271 5.96347C33.7894 5.91904 33.7517 5.8746 33.7517 5.78573C33.7139 5.7413 33.7139 5.65243 33.7139 5.60799C33.7139 5.51912 33.7139 5.47469 33.7139 5.38582C33.7139 5.34138 33.7517 5.25251 33.7517 5.20808C33.7894 5.16364 33.7894 5.07477 33.8271 5.03034C33.8649 4.9859 33.9026 4.94147 33.9403 4.89703C33.9781 4.8526 34.0535 4.80816 34.129 4.80816C34.2045 4.76373 34.2422 4.76373 34.3177 4.76373C34.3554 4.76373 34.3931 4.76373 34.4308 4.76373C34.4686 4.76373 34.5063 4.76373 34.544 4.76373C34.6195 4.76373 34.6572 4.76373 34.7327 4.80816C34.8082 4.80816 34.8836 4.8526 34.9214 4.8526C34.9591 4.8526 35.0346 4.89703 35.0723 4.89703C35.1478 4.89703 35.1855 4.94147 35.2232 4.94147L35.4119 5.03034L35.4496 4.76373L35.5251 4.05277V3.87503L35.3742 3.8306C35.3364 3.8306 35.261 3.78616 35.2232 3.78616C35.1855 3.78616 35.1478 3.74173 35.0723 3.74173C35.0346 3.74173 34.9591 3.69729 34.8836 3.69729C34.8082 3.69729 34.7704 3.65286 34.695 3.65286H34.6572V3.03077V2.80859H34.4686H33.9403H33.7517V3.03077V3.69729H33.7139C33.6007 3.74173 33.4875 3.78616 33.3743 3.87503C33.2611 3.91947 33.1857 4.00834 33.1102 4.09721C33.0347 4.18608 32.9593 4.27495 32.8838 4.40825C32.8083 4.49712 32.7706 4.63042 32.7329 4.76373C32.6951 4.89703 32.6574 5.03034 32.6197 5.16364C32.5819 5.29695 32.5819 5.47469 32.5819 5.60799C32.5819 5.7413 32.5819 5.83017 32.6197 5.96347C32.6574 6.09678 32.6574 6.18565 32.7329 6.31895C32.7706 6.40782 32.8461 6.54112 32.8838 6.62999C32.9593 6.71886 32.997 6.80773 33.0725 6.8966C33.1479 6.98547 33.2234 7.07434 33.3366 7.11878C33.4121 7.20765 33.5253 7.25208 33.6007 7.29652C33.7139 7.34095 33.8271 7.42982 33.9026 7.47426C34.0158 7.51869 34.129 7.56313 34.2045 7.60756C34.2422 7.60756 34.3177 7.652 34.3554 7.69643C34.3931 7.74087 34.4686 7.74087 34.5063 7.7853C34.544 7.82974 34.5818 7.87417 34.6195 7.87417C34.6572 7.91861 34.695 7.96304 34.7327 8.00748C34.7704 8.05191 34.7704 8.09635 34.8082 8.18522C34.8082 8.22965 34.8459 8.31852 34.8459 8.40739C34.8459 8.49626 34.8459 8.54069 34.8459 8.62956C34.8459 8.674 34.8082 8.76287 34.7704 8.8073C34.7327 8.85174 34.695 8.89617 34.6572 8.94061C34.6195 8.98504 34.5818 9.02948 34.5063 9.07391C34.4686 9.11835 34.3931 9.11835 34.3554 9.16278C34.3177 9.16278 34.2422 9.20722 34.1667 9.20722C34.129 9.20722 34.0913 9.20722 34.0158 9.20722C33.9781 9.20722 33.9026 9.20722 33.8649 9.20722C33.7894 9.20722 33.7139 9.20722 33.6762 9.20722C33.6007 9.20722 33.5253 9.16278 33.4875 9.16278C33.4121 9.16278 33.3366 9.11835 33.2611 9.07391C33.1857 9.02948 33.1102 9.02948 33.0347 8.98504C32.997 8.98504 32.9593 8.94061 32.9215 8.94061C32.8838 8.94061 32.8461 8.89617 32.8083 8.89617L32.5819 8.76287L32.5442 9.07391L32.4688 9.87374V10.007L32.5819 10.0515C32.7329 10.007 32.8083 10.0515 32.9215 10.0959C32.997 10.1403 33.1102 10.1848 33.1857 10.1848C33.2611 10.2292 33.3743 10.2292 33.4875 10.2737C33.6007 10.3181 33.6762 10.3181 33.7894 10.3181H33.8649V10.9846V11.2068H34.0535H34.5818H34.7704V10.9846V10.2737H34.8082C34.9214 10.2292 35.0346 10.1848 35.1478 10.0959C35.261 10.0515 35.3364 9.96261 35.4496 9.87374C35.5251 9.78487 35.6006 9.696 35.676 9.5627C35.7515 9.47383 35.7892 9.34052 35.8647 9.20722C35.9024 9.07391 35.9402 8.94061 35.9779 8.8073C36.0156 8.674 36.0156 8.54069 36.0156 8.36295C36.0156 8.22965 36.0156 8.14078 35.9779 8.00748Z" stroke="#3355FF" stroke-width="0.2" mask="url(#path-2-outside-1)"/>
<path d="M30.7013 14.1357L30.7012 14.1357L30.6993 14.1375L24.6118 19.8459L16.7567 15.9953L16.756 15.995C16.5477 15.8969 16.3005 15.9464 16.1361 16.0912C16.136 16.0914 16.1358 16.0915 16.1356 16.0916L7.68448 23.2003C7.40159 23.4382 7.32203 23.9088 7.52203 24.2404C7.64448 24.4793 7.85067 24.5771 8.05626 24.5771C8.18339 24.5771 8.30715 24.527 8.42673 24.4331L8.42675 24.4331L8.42804 24.4321L16.5911 17.5657L24.4857 21.4172L24.4863 21.4175C24.5913 21.467 24.7149 21.4785 24.8312 21.4606C24.9475 21.4427 25.0606 21.3949 25.1444 21.3209L25.1445 21.3209L25.1455 21.32L31.5213 15.3667C31.6655 15.2448 31.7446 15.0538 31.7643 14.8566C31.7841 14.6586 31.7448 14.4475 31.6441 14.2814C31.4382 13.9419 30.9869 13.8955 30.7013 14.1357Z" fill="#3355FF" stroke="#3355FF" stroke-width="0.1"/>
<path d="M40.4304 38.6208H37.6882V18.0977C37.6882 17.6781 37.4091 17.3367 37.0345 17.3367H31.4878C31.1133 17.3367 30.8341 17.6781 30.8341 18.0977V38.6208H28.8966V25.2072C28.8966 24.7876 28.6174 24.4462 28.2428 24.4462H22.6584C22.2839 24.4462 22.0047 24.7876 22.0047 25.2072V38.6208H20.0672V24.1407C20.0672 23.7212 19.788 23.3798 19.4134 23.3798H13.8668C13.4922 23.3798 13.213 23.7212 13.213 24.1407V38.6208H11.2755V28.3176C11.2755 27.898 10.9963 27.5566 10.6218 27.5566H5.03737C4.66281 27.5566 4.38365 27.898 4.38365 28.3176V38.6208H1.60372C1.22916 38.6208 0.95 38.9622 0.95 39.3817C0.95 39.8012 1.22916 40.1427 1.60372 40.1427H4.99964H10.5463H13.8668H19.4134H22.6584H28.2051H31.4501H36.9968H40.3927C40.7665 40.1427 41.0454 39.8025 41.0464 39.384C41.0851 38.9616 40.8042 38.6208 40.4304 38.6208ZM9.93032 38.6208H5.69109V29.0785H9.93032V38.6208ZM18.7597 38.6208H14.5205V24.9017H18.7597V38.6208ZM27.5514 38.6208H23.3121V25.9681H27.5514V38.6208ZM36.3808 38.6208H32.1415V18.8586H36.3808V38.6208Z" fill="#3355FF" stroke="#3355FF" stroke-width="0.1"/>
</svg>
