<svg width="249" height="38" viewBox="0 0 249 38" fill="none" xmlns="http://www.w3.org/2000/svg">
<path fill-rule="evenodd" clip-rule="evenodd" d="M46.2533 10.0742V20.6147H35.7414V11.4301C35.7414 10.6813 35.1273 10.0742 34.3701 10.0742H30.822V35.1921C30.822 35.9413 31.4359 36.5484 32.1934 36.5484H35.7414V24.8656H46.2533V35.1921C46.2533 35.9413 46.8671 36.5484 47.6246 36.5484H51.1724V11.4301C51.1724 10.6813 50.5585 10.0742 49.801 10.0742H46.2533Z" fill="#A4A4A4"/>
<path fill-rule="evenodd" clip-rule="evenodd" d="M66.8878 16.3164V28.8619C66.8878 30.0017 66.3 31.0824 65.3021 31.6526C62.5165 33.2444 59.6339 31.2561 59.6339 28.6344V17.6723C59.6339 16.9235 59.0201 16.3164 58.2626 16.3164H54.7004V29.0814C54.7004 33.1887 58.0983 36.5491 62.2514 36.5491H64.2704C68.4235 36.5491 71.8213 33.1887 71.8213 29.0814V17.6723C71.8213 16.9235 71.2075 16.3164 70.4503 16.3164H66.8878Z" fill="#A4A4A4"/>
<path fill-rule="evenodd" clip-rule="evenodd" d="M121.605 36.5477H125.153V18.782C125.153 18.0328 124.539 17.4258 123.782 17.4258H120.234V35.1915C120.234 35.9406 120.848 36.5477 121.605 36.5477Z" fill="#5B5B5B"/>
<path fill-rule="evenodd" clip-rule="evenodd" d="M122.694 15.5004C124.21 15.5004 125.439 14.2848 125.439 12.7852C125.439 11.2857 124.21 10.0703 122.694 10.0703C121.177 10.0703 119.948 11.2857 119.948 12.7852C119.948 14.2848 121.177 15.5004 122.694 15.5004Z" fill="#5B5B5B"/>
<path fill-rule="evenodd" clip-rule="evenodd" d="M89.1326 28.1454C89.1326 30.5591 87.1362 32.1658 84.6955 32.1658C82.2549 32.1658 80.2582 30.5591 80.2582 28.1454V24.7012C80.2582 22.2875 82.2549 20.6808 84.6955 20.6808C87.1362 20.6808 89.1326 22.2875 89.1326 24.7012V28.1454ZM84.6955 16.3008C79.5354 16.3008 75.3137 19.9512 75.3137 25.0541V27.8142C75.3137 32.9171 79.5354 36.5458 84.6955 36.5458C89.8554 36.5458 94.0774 32.9171 94.0774 27.8142V25.0541C94.0774 19.9512 89.8554 16.3008 84.6955 16.3008Z" fill="#A4A4A4"/>
<path fill-rule="evenodd" clip-rule="evenodd" d="M111.462 28.1474C111.462 30.5611 109.465 32.1678 107.025 32.1678C104.584 32.1678 102.587 30.5611 102.587 28.1474V24.7032C102.587 22.2895 104.584 20.6828 107.025 20.6828C109.465 20.6828 111.462 22.2895 111.462 24.7032V28.1474ZM107.025 16.3028C105.412 16.3028 103.891 16.6594 102.562 17.3055V11.407C102.562 10.6578 101.948 10.0508 101.191 10.0508H97.6428V27.8162C97.6428 32.9194 101.865 36.5478 107.025 36.5478C112.185 36.5478 116.406 32.9194 116.406 27.8162V25.0561C116.406 19.9532 112.185 16.3028 107.025 16.3028Z" fill="#5B5B5B"/>
<path fill-rule="evenodd" clip-rule="evenodd" d="M209.551 28.2284C209.551 30.617 207.575 32.2072 205.159 32.2072C202.744 32.2072 200.767 30.617 200.767 28.2284V24.8194C200.767 22.4308 202.744 20.8406 205.159 20.8406C207.575 20.8406 209.551 22.4308 209.551 24.8194V28.2284ZM205.159 16.5057H205.159C203.563 16.5057 202.058 16.8583 200.743 17.4976V11.4084C200.743 10.6673 200.135 10.0664 199.385 10.0664H195.874V27.9005C195.874 32.9511 200.052 36.5421 205.159 36.5421H205.159C210.266 36.5421 214.445 32.9511 214.445 27.9005V25.1686C214.445 20.1183 210.266 16.5057 205.159 16.5057Z" fill="#A4A4A4"/>
<path fill-rule="evenodd" clip-rule="evenodd" d="M248.969 36.4528V33.398C248.969 32.6749 248.377 32.0895 247.646 32.092C246.906 32.0945 245.978 32.0969 245.194 32.0969C243.195 32.0969 243.288 31.1088 243.288 28.5468V11.3962C243.288 10.6746 242.697 10.0898 241.968 10.0898H238.366V29.1325C238.366 33.7441 239.568 36.4528 244.602 36.4528C246.547 36.4528 247.958 36.3984 248.969 36.4532L248.969 36.4528Z" fill="#A4A4A4"/>
<path fill-rule="evenodd" clip-rule="evenodd" d="M154.688 20.7256H145.169V23.2907C145.169 24.0618 145.801 24.6869 146.581 24.6869H151.102V26.9547C151.102 28.628 150.68 29.8628 149.807 30.733C148.735 31.8276 147.252 32.4059 145.518 32.4059C143.956 32.4059 142.469 31.871 141.541 30.9754C140.251 29.7251 139.973 28.3673 139.973 23.3272C139.973 18.316 140.251 16.9644 141.54 15.7153C142.492 14.7968 144.348 14.1019 145.887 14.1019C151.091 14.1019 152.838 15.9283 154.142 17.5913H154.313V13.8725C154.313 13.3227 154.047 12.8088 153.613 12.4655C151.433 10.74 149.26 10.1094 145.518 10.1094C142.496 10.1094 139.912 11.0486 137.838 12.9007C134.974 15.4581 134.974 18.3435 134.975 23.1239V23.5306C134.974 28.311 134.974 31.1961 137.838 33.7534C139.883 35.5802 142.539 36.5454 145.518 36.5454C148.647 36.5454 151.402 35.5037 153.484 33.5333L153.484 33.5327C155.342 31.7682 156.1 28.389 156.1 24.8754V22.1215C156.1 21.3507 155.468 20.7256 154.688 20.7256Z" fill="#A4A4A4"/>
<path fill-rule="evenodd" clip-rule="evenodd" d="M170.198 36.4528V33.398C170.198 32.6749 169.606 32.0895 168.875 32.092C168.135 32.0945 167.207 32.0969 166.423 32.0969C164.424 32.0969 164.517 31.1088 164.517 28.5468V11.3962C164.517 10.6746 163.926 10.0898 163.197 10.0898H159.595V29.1325C159.595 33.7441 160.797 36.4528 165.831 36.4528C167.775 36.4528 169.186 36.3984 170.198 36.4532L170.198 36.4528Z" fill="#A4A4A4"/>
<path fill-rule="evenodd" clip-rule="evenodd" d="M187.427 28.2305C187.427 30.6191 185.451 32.2093 183.035 32.2093C180.62 32.2093 178.644 30.6191 178.644 28.2305V24.8215C178.644 22.4329 180.62 20.8427 183.035 20.8427C185.451 20.8427 187.427 22.4329 187.427 24.8215V28.2305ZM183.035 16.5078C177.928 16.5078 173.75 20.1205 173.75 25.1707V27.9026C173.75 32.9532 177.928 36.5442 183.035 36.5442C188.142 36.5442 192.32 32.9532 192.32 27.9026V25.1707C192.32 20.1205 188.142 16.5078 183.035 16.5078Z" fill="#A4A4A4"/>
<path fill-rule="evenodd" clip-rule="evenodd" d="M229.977 27.4734V32.5008C229.597 32.5735 229.178 32.6314 228.723 32.6726C227.609 32.7763 226.611 32.7952 225.452 32.6909C224.998 32.6503 224.579 32.5358 224.207 32.3531C223.847 32.1757 223.552 31.9237 223.307 31.582C223.075 31.2582 222.957 30.7799 222.957 30.1605C222.957 29.1955 223.305 28.5046 224.021 28.0474C224.783 27.5604 225.938 27.3131 227.454 27.3131C227.862 27.3131 228.36 27.3363 228.949 27.3824C229.334 27.4127 229.677 27.4431 229.977 27.4734ZM232.61 18.2093C231.151 17.0568 229.018 16.4727 226.269 16.4727C225.247 16.4727 224.173 16.5463 223.076 16.6912C222.196 16.8073 220.951 16.9735 220.087 17.1704C219.737 17.2503 219.673 17.5224 219.673 17.8484V20.4472C219.673 20.9103 219.678 21.3316 220.173 21.2121C221.098 20.9892 222.893 20.5961 223.38 20.5165C224.151 20.3912 224.99 20.328 225.874 20.328C227.251 20.328 228.301 20.5716 228.994 21.0505C229.646 21.5019 229.977 22.3609 229.977 23.6035V23.754C229.732 23.7317 229.462 23.7103 229.169 23.6908C228.62 23.6543 227.916 23.6357 227.058 23.6357C225.887 23.6357 224.753 23.767 223.687 24.0261C222.606 24.2898 221.633 24.6972 220.796 25.238C219.945 25.7897 219.263 26.4896 218.768 27.3205C218.268 28.1573 218.015 29.1373 218.015 30.232C218.015 31.3439 218.231 32.3119 218.659 33.1085C219.089 33.9121 219.709 34.5823 220.498 35.0996C221.275 35.6104 222.228 35.9837 223.331 36.2109C224.404 36.4313 225.618 36.5431 226.94 36.5431C227.903 36.5431 234.839 36.4465 234.839 33.1821C234.839 29.3995 234.839 23.7456 234.839 23.7456C234.839 21.2415 234.089 19.3789 232.61 18.2093Z" fill="#A4A4A4"/>
<path fill-rule="evenodd" clip-rule="evenodd" d="M16.0534 11.8667C16.0534 6.59483 13.4566 2.06125 11.4814 0.58493C11.4733 0.580286 11.3303 0.500728 11.3425 0.711542L11.3396 0.718043C11.1756 10.8969 5.91752 13.6557 3.02679 17.372C-3.64427 25.9483 2.55977 35.351 8.87743 37.0889C12.4124 38.0612 8.06108 35.3683 7.50077 29.6804C6.82309 22.8055 16.0534 17.5578 16.0534 11.8667Z" fill="#A4A4A4"/>
<path fill-rule="evenodd" clip-rule="evenodd" d="M19.1242 15.3766C19.0838 15.3493 19.0262 15.3307 18.9864 15.3958C18.8778 16.677 17.5544 19.418 15.8769 21.9347C10.1875 30.4716 13.4297 34.587 15.2528 36.7973C16.3114 38.0805 15.2528 36.7973 17.8987 35.486C18.1059 35.3832 23.0613 32.6349 23.5978 26.373C24.1175 20.3092 20.4348 16.487 19.1242 15.3766Z" fill="#5B5B5B"/>
</svg>
