<svg width="158" height="56" viewBox="0 0 158 56" fill="none" xmlns="http://www.w3.org/2000/svg">
<path d="M88.6279 28.1255C88.6279 29.9765 88.3383 31.7232 87.7329 33.3396C87.1275 34.982 86.2852 36.3898 85.1533 37.6151C84.0214 38.8404 82.6527 39.805 80.9943 40.535C79.336 41.2649 77.4671 41.6038 75.3613 41.6038C73.2555 41.6038 71.3866 41.2389 69.7283 40.535C68.07 39.805 66.7012 38.8404 65.5693 37.6151C64.4375 36.3898 63.5688 34.9559 62.9897 33.3396C62.4106 31.6971 62.1211 29.9765 62.1211 28.1255C62.1211 26.3006 62.4106 24.5539 62.9897 22.9114C63.5688 21.269 64.4375 19.8352 65.5693 18.6098C66.7012 17.3845 68.0963 16.4199 69.7283 15.69C71.3866 14.96 73.2555 14.6211 75.3613 14.6211C77.4671 14.6211 79.336 14.9861 80.9943 15.69C82.6527 16.4199 84.0214 17.3845 85.1533 18.6098C86.2852 19.8352 87.1275 21.269 87.7329 22.9114C88.3383 24.5539 88.6279 26.3006 88.6279 28.1255ZM75.3876 37.3283C76.6774 37.3283 77.8093 37.0937 78.7569 36.6244C79.7309 36.1551 80.5205 35.5034 81.1786 34.6952C81.8367 33.861 82.3105 32.8964 82.6263 31.7753C82.9422 30.6543 83.1001 29.429 83.1001 28.1255C83.1001 26.822 82.9422 25.5967 82.6263 24.4757C82.3105 23.3546 81.8367 22.39 81.1786 21.5558C80.5205 20.7215 79.7309 20.0959 78.7569 19.6266C77.783 19.1573 76.6774 18.9227 75.3876 18.9227C74.0978 18.9227 72.966 19.1573 72.0184 19.6266C71.0444 20.0959 70.2548 20.7476 69.5967 21.5558C68.9386 22.39 68.4648 23.3546 68.149 24.4757C67.8331 25.5967 67.6751 26.822 67.6751 28.1255C67.6751 29.429 67.8331 30.6543 68.149 31.7753C68.4648 32.8964 68.9386 33.861 69.5967 34.6952C70.2548 35.5295 71.0444 36.1551 72.0184 36.6244C72.966 37.0937 74.0978 37.3283 75.3876 37.3283ZM92.1024 41.1606V15.0904H97.6302V27.6041L106.764 15.0904H113.16L103.474 27.9691L113.819 41.1606H106.975L97.6039 28.3601V41.1606H92.1024ZM116.03 15.0904H131.849V19.4441H121.584V25.7531H131.376V30.0808H121.584V36.8069H131.981V41.1606H116.056V15.0904H116.03ZM151.565 15.0904H157.567L148.906 28.0473L157.725 41.1606H151.67L145.985 32.2707L140.299 41.1606H134.245L143.063 28.0473L134.403 15.0904H140.404L145.985 23.9021L151.565 15.0904Z" fill="#5B5B5B"/>
<path d="M27.9019 25.5704C34.8799 25.5704 40.5367 19.9679 40.5367 13.0567C40.5367 6.14556 34.8799 0.542969 27.9019 0.542969C20.9239 0.542969 15.2671 6.14556 15.2671 13.0567C15.2671 19.9679 20.9239 25.5704 27.9019 25.5704Z" fill="#BCBABA"/>
<path d="M27.9019 55.8126C34.8799 55.8126 40.5367 50.2101 40.5367 43.2989C40.5367 36.3878 34.8799 30.7852 27.9019 30.7852C20.9239 30.7852 15.2671 36.3878 15.2671 43.2989C15.2671 50.2101 20.9239 55.8126 27.9019 55.8126Z" fill="#A4A4A4"/>
<path d="M43.169 40.6915C50.147 40.6915 55.8038 35.0889 55.8038 28.1778C55.8038 21.2667 50.147 15.6641 43.169 15.6641C36.191 15.6641 30.5342 21.2667 30.5342 28.1778C30.5342 35.0889 36.191 40.6915 43.169 40.6915Z" fill="#CECCCC"/>
<path d="M12.6348 40.6915C19.6128 40.6915 25.2696 35.0889 25.2696 28.1778C25.2696 21.2667 19.6128 15.6641 12.6348 15.6641C5.6568 15.6641 0 21.2667 0 28.1778C0 35.0889 5.6568 40.6915 12.6348 40.6915Z" fill="#5B5B5B"/>
<path fill-rule="evenodd" clip-rule="evenodd" d="M24.9143 25.2186C20.336 24.1193 16.7323 20.5501 15.6223 16.0156C20.2006 17.1149 23.8044 20.6842 24.9143 25.2186Z" fill="#979797"/>
<path fill-rule="evenodd" clip-rule="evenodd" d="M15.6223 40.3397C16.7323 35.8053 20.336 32.236 24.9143 31.1367C23.8044 35.6711 20.2006 39.2404 15.6223 40.3397Z" fill="#979797"/>
<path fill-rule="evenodd" clip-rule="evenodd" d="M30.8894 31.1367C35.4677 32.236 39.0715 35.8053 40.1814 40.3397C35.6031 39.2404 31.9994 35.6711 30.8894 31.1367Z" fill="#BCBABA"/>
<path fill-rule="evenodd" clip-rule="evenodd" d="M40.1814 16.0156C39.0715 20.5501 35.4677 24.1193 30.8894 25.2186C31.9994 20.6842 35.6031 17.1149 40.1814 16.0156Z" fill="#5B5B5B"/>
</svg>
