<svg width="185" height="79" viewBox="0 0 185 79" fill="none" xmlns="http://www.w3.org/2000/svg">
<g clip-path="url(#clip0)">
<path d="M130.279 17.2109L126.343 32.4474L99.3574 35.9227L130.279 17.2109Z" fill="#BABABA"/>
<path d="M137.585 78.6711L144.29 50.9976L135.592 47.4258L137.585 78.6711Z" fill="#5B5B5B"/>
<path d="M126.343 32.4297L119.265 46.91L99.4387 35.9693L126.343 32.4297Z" fill="#D5D6D7"/>
<path d="M137.585 78.6718L135.592 47.4264L119.184 46.8633L137.585 78.6718Z" fill="#BCBABA"/>
<path d="M126.343 32.4297L135.673 47.4088L119.265 46.8617L126.343 32.4297Z" fill="#5B5B5B"/>
<path d="M130.28 17.2109L152.617 19.9944L126.344 32.4475L130.28 17.2109Z" fill="#ACA9A9"/>
<path d="M177.043 10.2773L162.999 26.4953L163.987 11.5001L177.043 10.2773Z" fill="#ACA9A9"/>
<path d="M184.834 0.992188L177.043 10.2757L183.133 11.0158L184.834 0.992188Z" fill="#ACA9A9"/>
<path d="M169.478 18.6886L183.133 10.9979L177.043 10.2578L169.478 18.6886Z" fill="#AFAFAF"/>
<path d="M144.29 50.9942L144.955 32.3789L135.592 47.4224L144.29 50.9942Z" fill="#BCBABA"/>
<path d="M144.955 32.3789L135.592 47.4223L126.344 32.4433L144.955 32.3789Z" fill="#5B5B5B"/>
<path d="M152.617 19.9922L144.955 32.3809L126.344 32.4453L152.617 19.9922Z" fill="#BABABA"/>
<path d="M144.955 32.3789L144.291 50.9942L161.428 68.4027L144.955 32.3789Z" fill="#D2D2D2"/>
<path d="M170.385 58.6703L161.331 36.3867L161.428 68.4204L170.385 58.6703Z" fill="#5B5B5B"/>
<path d="M162.999 26.4922L161.331 36.3871L144.955 32.3809L162.999 26.4922Z" fill="#5B5B5B"/>
<path d="M171.292 39.9101L161.331 36.3866L162.951 26.5078L171.292 39.9101Z" fill="#D2D2D2"/>
<path d="M174.937 58.0572L164.084 40.7773H170.288L174.937 58.0572Z" fill="#ACA9A9"/>
<path d="M154.657 16.3068L162.999 26.4913L163.987 11.4961L154.657 16.3068Z" fill="#BABABA"/>
<path d="M161.331 36.3851L144.955 32.3789L161.428 68.4027L161.331 36.3851Z" fill="#5B5B5B"/>
<path d="M170.386 58.6719L173.998 60.683L161.461 68.4058L170.386 58.6719Z" fill="#BCBABA"/>
<path d="M174.937 57.8498L161.331 36.3867L170.385 58.6864L174.937 57.8498Z" fill="#BABABA"/>
<path d="M154.657 16.3086L144.938 32.3978L162.983 26.5092L154.657 16.3086Z" fill="#ACA9A9"/>
<path d="M25.4145 63.6296L28.0385 64.965L30.6788 63.6296V78.673H25.4145V63.6296ZM25.0095 58.5454C25.0635 57.7995 25.4123 57.1052 25.9798 56.6139C26.5473 56.1226 27.2873 55.8741 28.0385 55.9228C28.4199 55.8633 28.8098 55.8865 29.1812 55.991C29.5527 56.0954 29.897 56.2785 30.1904 56.5277C30.4838 56.777 30.7194 57.0864 30.8809 57.4347C31.0424 57.783 31.1261 58.1619 31.1261 58.5454C31.1261 58.9288 31.0424 59.3077 30.8809 59.656C30.7194 60.0043 30.4838 60.3137 30.1904 60.563C29.897 60.8122 29.5527 60.9953 29.1812 61.0997C28.8098 61.2042 28.4199 61.2274 28.0385 61.1679C27.6695 61.1965 27.2983 61.1525 26.9464 61.0386C26.5944 60.9247 26.2685 60.7431 25.9872 60.504C25.7059 60.2649 25.4748 59.9732 25.307 59.6454C25.1393 59.3176 25.0382 58.9602 25.0095 58.5936V58.5454Z" fill="#A4A4A4"/>
<path d="M13.0555 55.6953V64.4961H5.73405V55.6953H0V78.6708H5.73405V69.8378H13.0555V78.6708H18.7895V55.6953H13.0555Z" fill="#A4A4A4"/>
<path d="M42.7787 78.6699H37.4819V67.2466H35.4248V62.3072H37.4819V56.8047H42.7787V62.3072H44.8358V67.2466H42.7787V78.6699Z" fill="#A4A4A4"/>
<path d="M55.9474 73.3935H60.6286C62.459 73.3935 63.0259 72.2833 63.0259 71.3341C63.0259 70.3848 62.4266 69.3068 60.6286 69.3068H55.9474V73.3935ZM55.9474 64.5283H60.2237C60.4577 64.5625 60.6962 64.5504 60.9255 64.4928C61.1549 64.4353 61.3705 64.3333 61.5601 64.1928C61.7497 64.0523 61.9095 63.8761 62.0304 63.6741C62.1513 63.4721 62.2309 63.2485 62.2646 63.0159C62.2726 62.9303 62.2726 62.8441 62.2646 62.7585C62.2646 62.1471 61.9244 60.9887 60.2075 60.9887H55.9474V64.5283ZM59.592 55.6953C66.5732 55.6953 67.6909 59.8142 67.6909 61.9058C67.7462 62.9076 67.498 63.9029 66.9783 64.7633C66.4586 65.6236 65.6912 66.3096 64.7753 66.7325C65.8793 67.0617 66.838 67.7537 67.4942 68.6949C68.1505 69.6362 68.4654 70.771 68.3874 71.9133C68.3874 75.5173 66.2979 78.6225 59.3814 78.6225H50.2134V55.6953H59.592Z" fill="#5B5B5B"/>
<path d="M83.1762 78.6708H77.4422V60.9726H71.4004V55.6953H89.218V60.9243H83.1762V78.6708Z" fill="#5B5B5B"/>
<path d="M113.094 59.3319L109.384 62.6624C107.949 61.4089 106.095 60.7319 104.185 60.7639C103.379 60.7446 102.578 60.8835 101.827 61.1725C101.075 61.4615 100.389 61.8949 99.8064 62.4479C99.2241 63.001 98.7573 63.6627 98.433 64.3953C98.1086 65.1278 97.933 65.9168 97.9161 66.7169C97.8999 66.8773 97.8999 67.039 97.9161 67.1995C97.8679 67.9972 97.9784 68.7965 98.2414 69.5518C98.5043 70.307 98.9145 71.0034 99.4485 71.6011C99.9826 72.1987 100.63 72.686 101.354 73.0351C102.077 73.3841 102.863 73.588 103.666 73.6352H104.185C106.09 73.6851 107.945 73.0251 109.384 71.785L113.094 75.1154C111.946 76.3166 110.565 77.2728 109.033 77.9256C107.501 78.5785 105.852 78.9143 104.185 78.9125C101.066 78.9125 98.0747 77.6818 95.8694 75.4913C93.664 73.3007 92.425 70.3296 92.425 67.2317C92.425 64.1338 93.664 61.1627 95.8694 58.9722C98.0747 56.7816 101.066 55.5509 104.185 55.5509C105.851 55.5424 107.501 55.8735 109.034 56.5238C110.566 57.1742 111.948 58.1299 113.094 59.3319Z" fill="#5B5B5B"/>
</g>
<defs>
<clipPath id="clip0">
<rect width="184.834" height="77.9202" fill="white" transform="translate(0 0.992188)"/>
</clipPath>
</defs>
</svg>
