<svg width="232" height="28" viewBox="0 0 232 28" fill="none" xmlns="http://www.w3.org/2000/svg">
<g clip-path="url(#clip0)">
<path d="M16.1935 23.1898H5.06523V17.2538H16.1935C18.9743 17.2538 20.3957 18.587 20.3957 20.3137C20.3957 21.9783 19.0053 23.1898 16.1935 23.1898ZM15.8317 14.0749H5.06523V9.07614H15.8317C18.7623 9.07614 19.9124 10.1116 19.9124 11.5302C19.9124 12.8324 18.5815 14.0749 15.8317 14.0749ZM18.6745 15.5893C23.3625 15.4366 25.0553 13.1042 25.0553 10.5621C25.0527 7.77401 22.8456 5.47266 17.4624 5.47266H0.258301V26.7337H17.9767C22.3908 26.7337 25.6884 24.888 25.6884 20.9195C25.6884 18.103 23.8433 15.711 18.6719 15.5893H18.6745ZM30.3326 5.47266V26.7337H35.1473V5.47266H30.3326ZM55.4009 9.50069H65.9969V5.47266H40.0214V9.50069H50.6044V26.7337H55.4113L55.4009 9.50069ZM70.8762 5.47266V26.7337H75.6831V18.4498H86.9639V14.9525H75.6831V9.13826H94.0088V5.47266H70.8762ZM99.1957 5.47266V26.7337H104.003V5.47266H99.1957ZM113.725 10.6501L129.658 26.7311H135.1V5.47266H130.355V20.7979L115.054 5.47266H108.946V26.7337H113.725V10.6501ZM140.047 5.47266V26.7337H163.565V23.1613H144.854V17.316H156.073V14.0154H144.854V9.13826H163.569V5.47266H140.047ZM196.8 5.47266H190.449L182.348 12.9541L174.303 5.47266H167.862L179.171 15.9517L167.439 26.7337H173.791L182.286 18.8899L190.752 26.7337H197.213L185.462 15.9206L196.8 5.47266Z" fill="#A4A4A4"/>
<path d="M230.029 1.32859C229.933 1.28717 220.02 -0.0641378 210.22 6.24714C204.137 10.1742 203.331 15.9186 203.609 19.7498C217.862 18.1707 229.706 1.78679 230.029 1.32859ZM204.576 24.0057C205.801 26.1647 215.061 31.0599 223.259 24.3086C231.456 17.5573 230.769 5.27378 230.029 1.32859C229.771 1.90069 220.822 21.5335 204.576 24.0031" fill="#A4A4A4"/>
<path d="M230.029 1.33135C229.934 1.29252 220.02 -0.0613775 210.22 6.24991C204.137 10.177 203.331 15.9213 203.609 19.75C217.862 18.1735 229.706 1.78955 230.029 1.33135Z" fill="#5B5B5B"/>
</g>
<defs>
<clipPath id="clip0">
<rect width="231.042" height="27.1815" fill="white" transform="translate(0 0.8125)"/>
</clipPath>
</defs>
</svg>
