<svg width="154" height="36" viewBox="0 0 154 36" fill="none" xmlns="http://www.w3.org/2000/svg">
<path d="M0.000244141 35.4226H132.687V31.957H0.000244141V35.4226Z" fill="#A4A4A4"/>
<path d="M141.884 35.4187H153.278V31.9531H141.884V35.4187Z" fill="#A4A4A4"/>
<path d="M25.8529 26.7021H30.6045V8.86451H25.8529V26.7021ZM25.3931 3.71711C25.3931 2.90168 25.6485 2.23914 26.2105 1.67853C26.7215 1.16888 27.4367 0.914062 28.2542 0.914062C29.1228 0.914062 29.787 1.16888 30.2979 1.67853C30.8088 2.18817 31.1154 2.85071 31.1154 3.71711C31.1154 4.53254 30.8599 5.19507 30.2979 5.75568C29.787 6.26533 29.0717 6.52015 28.2542 6.52015C27.4367 6.52015 26.7725 6.26533 26.2105 5.75568C25.6485 5.24604 25.3931 4.53254 25.3931 3.71711Z" fill="#333433"/>
<path d="M41.5382 8.81147H46.3919V12.379H41.5382V20.941C41.5382 21.7055 41.7425 22.3171 42.2024 22.7757C42.6622 23.2344 43.2242 23.4892 43.9906 23.4892C44.6548 23.4892 45.4212 23.3873 46.2387 23.1834L46.8518 26.7C45.4723 27.0567 44.1439 27.2606 42.8666 27.2606C41.998 27.2606 41.1805 27.1077 40.4652 26.8529C39.7499 26.5981 39.1368 26.1903 38.5748 25.6807C38.0639 25.1711 37.6551 24.5595 37.3486 23.846C37.042 23.1325 36.9398 22.368 36.9398 21.5016V12.4809H33.6699V8.9134H36.9398V3.66406H41.4871V8.81147H41.5382Z" fill="#333433"/>
<path d="M49.2021 13.7579C49.2021 12.9934 49.3554 12.229 49.713 11.5664C50.0707 10.9039 50.5305 10.3433 51.0925 9.83362C51.7056 9.37494 52.4209 8.96722 53.2384 8.7124C54.0559 8.45758 55.0266 8.30469 55.9974 8.30469C57.0192 8.30469 58.0922 8.40662 59.1651 8.61048C60.2381 8.81433 61.3621 9.12012 62.4861 9.52783L61.4643 12.8915C60.5957 12.5347 59.7271 12.2799 58.8586 12.0761C57.99 11.8722 57.1725 11.7703 56.4061 11.7703C55.5887 11.7703 54.9245 11.9232 54.4135 12.2799C53.9026 12.6367 53.6982 13.0953 53.6982 13.7069C53.6982 14.2675 53.9537 14.6752 54.4135 14.9301C54.8734 15.1849 55.4354 15.4397 56.1507 15.6436C56.866 15.8474 57.5813 16.0513 58.3987 16.2042C59.2162 16.408 59.9826 16.7138 60.6468 17.1215C61.3621 17.5293 61.9241 18.0899 62.384 18.7524C62.8438 19.4659 63.0992 20.3833 63.0992 21.5045C63.0992 22.3199 62.946 23.0334 62.5883 23.7469C62.2307 24.4095 61.7708 25.021 61.1577 25.5307C60.5446 26.0403 59.8293 26.3971 58.9097 26.7028C58.0411 26.9577 57.0703 27.1106 56.0485 27.1106C53.8515 27.1106 51.5013 26.6519 49.0488 25.6836L50.0196 22.3709C52.1144 23.2373 54.0048 23.645 55.6908 23.645C56.5594 23.645 57.2747 23.4411 57.7856 23.0844C58.2966 22.7276 58.552 22.218 58.552 21.5554C58.552 20.9948 58.2966 20.5871 57.8367 20.2813C57.3769 19.9755 56.8149 19.7207 56.0996 19.5169C55.3843 19.313 54.669 19.1091 53.8515 18.9053C53.034 18.7014 52.3187 18.3956 51.6034 17.9879C50.8882 17.5802 50.3261 17.0706 49.8663 16.408C49.4065 15.7965 49.2021 14.8791 49.2021 13.7579Z" fill="#333433"/>
<path d="M72.6534 8.81147H77.5072V12.379H72.6534V20.941C72.6534 21.7055 72.8578 22.3171 73.3176 22.7757C73.7774 23.2344 74.3394 23.4892 75.1058 23.4892C75.77 23.4892 76.5364 23.3873 77.3539 23.1834L77.967 26.7C76.5875 27.0567 75.2591 27.2606 73.9818 27.2606C73.1132 27.2606 72.2958 27.1077 71.5805 26.8529C70.8652 26.5981 70.252 26.1903 69.69 25.6807C69.128 25.1711 68.7704 24.5595 68.4638 23.846C68.1573 23.1325 68.0551 22.368 68.0551 21.5016V12.4809H64.7852V8.9134H68.0551V3.66406H72.6023V8.81147H72.6534Z" fill="#333433"/>
<path d="M85.0178 21.2493C85.0178 21.9628 85.3244 22.5744 85.8864 23.084C86.4995 23.5937 87.2148 23.8485 88.0833 23.8485C89.3096 23.8485 90.2803 23.4408 91.0467 22.6763C91.8131 21.9118 92.1707 20.8925 92.1707 19.6694V18.5991C91.3022 18.3443 90.3314 18.2424 89.2585 18.2424C87.9301 18.2424 86.9082 18.4972 86.1418 19.0578C85.4265 19.5675 85.0178 20.3319 85.0178 21.2493ZM80.5728 21.5041C80.5728 19.6184 81.288 18.1405 82.7186 17.1212C84.1492 16.1019 86.1418 15.5922 88.7475 15.5922C89.3096 15.5922 89.8716 15.6432 90.4336 15.6942C90.9956 15.7451 91.6087 15.8471 92.1707 15.949V14.9807C92.1707 14.0633 91.8642 13.2988 91.2 12.7382C90.5358 12.1776 89.6672 11.8718 88.5432 11.8718C86.7549 11.8718 84.8134 12.2795 82.7186 13.1459L81.5435 9.88422C84.0981 8.86493 86.6017 8.40625 89.0541 8.40625C90.1781 8.40625 91.1489 8.55914 92.0685 8.91589C92.9882 9.22168 93.7546 9.68036 94.4188 10.2919C95.083 10.8525 95.5939 11.566 95.9516 12.3815C96.3092 13.1969 96.5136 14.1143 96.5136 15.0826V22.3705C96.5136 22.7782 96.6158 23.084 96.8201 23.2879C97.0245 23.5427 97.3311 23.6446 97.7398 23.6446C97.9442 23.6446 98.0974 23.6446 98.3018 23.5937C98.4551 23.5937 98.6084 23.5427 98.6595 23.5427L98.966 26.9573C98.5573 27.0083 98.1996 27.1102 97.7909 27.1612C97.3822 27.2121 96.9734 27.2121 96.5136 27.2121C95.5939 27.2121 94.8275 27.0083 94.1633 26.5496C93.4991 26.1419 93.0393 25.5303 92.7327 24.7658C91.9664 25.5303 91.0467 26.1419 90.0759 26.5496C89.0541 26.9573 88.0323 27.1612 86.9082 27.1612C85.9886 27.1612 85.12 27.0083 84.3536 26.7534C83.5872 26.4986 82.923 26.0909 82.361 25.5813C81.799 25.0716 81.3902 24.511 81.0837 23.7975C80.726 23.084 80.5728 22.3195 80.5728 21.5041Z" fill="#333433"/>
<path d="M101.623 8.76337H105.302L105.864 11.2097C106.579 10.2923 107.397 9.5788 108.419 9.06915C109.44 8.55951 110.513 8.30469 111.689 8.30469C113.017 8.30469 114.141 8.61047 115.163 9.17108C116.134 9.73169 116.9 10.5471 117.411 11.5664C118.228 10.4962 119.199 9.68073 120.272 9.12012C121.345 8.55951 122.52 8.30469 123.849 8.30469C124.819 8.30469 125.688 8.45758 126.505 8.76337C127.323 9.06915 128.038 9.52784 128.6 10.1394C129.213 10.7 129.673 11.4135 129.98 12.2289C130.286 13.0444 130.491 13.9108 130.491 14.8791V26.7028H125.841V15.6436C125.841 14.6243 125.535 13.8088 124.87 13.1463C124.206 12.5347 123.389 12.178 122.367 12.178C121.192 12.178 120.221 12.5857 119.455 13.4011C118.688 14.2166 118.331 15.2359 118.331 16.5609V26.7028H113.681V15.6436C113.681 14.6243 113.375 13.8088 112.761 13.1463C112.148 12.5347 111.331 12.178 110.309 12.178C109.083 12.178 108.112 12.5857 107.346 13.4011C106.579 14.2166 106.222 15.2359 106.222 16.5609V26.7028H101.572V8.76337H101.623Z" fill="#333433"/>
<path d="M148.168 17.6821C148.168 16.8667 148.066 16.1022 147.81 15.3887C147.606 14.6752 147.248 14.0637 146.839 13.605C146.431 13.0953 145.971 12.7386 145.409 12.4328C144.847 12.127 144.234 12.0251 143.569 12.0251C142.343 12.0251 141.373 12.4328 140.555 13.2992C139.789 14.1146 139.38 15.1849 139.38 16.51V18.9053C139.38 19.5678 139.482 20.1794 139.686 20.689C139.891 21.2497 140.197 21.7083 140.555 22.1161C140.913 22.5238 141.373 22.8296 141.883 23.0334C142.394 23.2373 142.956 23.3392 143.569 23.3392C144.234 23.3392 144.847 23.1863 145.409 22.9315C145.971 22.6767 146.431 22.2689 146.839 21.7593C147.248 21.2497 147.555 20.6381 147.81 19.9755C148.066 19.313 148.168 18.4976 148.168 17.6821ZM134.884 8.76337H138.562L139.124 11.0568C139.789 10.1904 140.555 9.52784 141.526 9.01819C142.497 8.55951 143.569 8.30469 144.745 8.30469C145.92 8.30469 146.993 8.55951 148.015 9.01819C148.985 9.47687 149.854 10.1394 150.569 10.9548C151.284 11.7703 151.846 12.7386 152.255 13.9108C152.664 15.032 152.868 16.3061 152.868 17.6821C152.868 19.0582 152.664 20.3323 152.255 21.4535C151.846 22.5747 151.284 23.594 150.569 24.4095C149.854 25.2249 148.985 25.8874 148.015 26.3461C147.044 26.8048 145.92 27.0596 144.745 27.0596C143.672 27.0596 142.65 26.8557 141.781 26.448C140.862 26.0403 140.095 25.4287 139.482 24.6133V35.4687H134.884V8.76337Z" fill="#333433"/>
<path d="M15.6343 22.1105C14.919 22.824 13.9482 23.1298 12.722 23.1298H6.99967V15.74H12.722C13.8971 15.74 14.8679 16.0967 15.6343 16.7592C16.3496 17.4218 16.7072 18.3391 16.7072 19.4094C16.7583 20.5306 16.4007 21.448 15.6343 22.1105ZM6.99967 5.75092H12.2622C13.3351 5.75092 14.2037 6.05671 14.919 6.71924C15.6343 7.33082 15.9408 8.19721 15.9408 9.2165C15.9408 10.2358 15.5832 11.0512 14.919 11.6628C14.2037 12.2744 13.3351 12.5802 12.2622 12.5802H6.99967V5.75092ZM20.3348 16.1986C19.5684 15.1284 18.5465 14.3639 17.2692 13.9052C18.2911 13.4466 19.0575 12.784 19.6706 11.8667C20.2837 10.9493 20.5902 9.87904 20.5902 8.65589C20.5902 7.68757 20.3859 6.82117 20.0282 6.05671C19.6706 5.24128 19.1086 4.57874 18.4444 4.01813C17.7802 3.45752 16.9627 2.99884 16.043 2.69306C15.1234 2.38727 14.1015 2.23438 12.9775 2.23438H0V5.4961C1.9926 5.4961 3.57647 7.12696 3.57647 9.11457C3.57647 11.1022 1.9926 12.733 0 12.733V15.689C1.9926 15.689 3.57647 17.3198 3.57647 19.3075V19.8681C3.57647 21.8557 1.9926 23.4865 0 23.4865V26.7483H13.5395C14.7146 26.7483 15.7365 26.5954 16.7072 26.2386C17.678 25.9328 18.4955 25.4742 19.2107 24.8626C19.926 24.251 20.4881 23.5375 20.8457 22.7221C21.2544 21.9066 21.4588 20.9893 21.4588 19.97C21.4588 18.492 21.1012 17.2689 20.3348 16.1986Z" fill="#333433"/>
</svg>
